<svg width="117" height="88" viewBox="0 0 117 88" fill="none" xmlns="http://www.w3.org/2000/svg">
<g filter="url(#filter0_d_14_15)">
<path d="M54.7607 55.7813C54.2229 55.7813 53.5996 55.4635 52.8907 54.828C52.1818 54.1924 51.4241 53.3491 50.6174 52.298C49.8352 51.2469 49.0529 50.1102 48.2707 48.888C47.5129 47.6413 46.8041 46.4069 46.1441 45.1846C45.5085 43.9624 44.9707 42.8746 44.5307 41.9213L40.9741 53.4346C40.8029 53.9969 40.5341 54.388 40.1674 54.608C39.8007 54.8524 39.3974 54.9991 38.9574 55.048C38.5418 55.0969 38.1263 55.1213 37.7107 55.1213C38.0285 54.4369 38.3463 53.6546 38.6641 52.7746C39.0063 51.8946 39.3974 50.8313 39.8374 49.5846C40.3018 48.338 40.8396 46.8224 41.4507 45.038C42.0618 43.2535 42.7829 41.1269 43.6141 38.658C44.4696 36.1646 45.4718 33.2435 46.6207 29.8946C46.6941 29.6991 46.7918 29.4302 46.9141 29.088C47.0363 28.7213 47.0974 28.3913 47.0974 28.098C47.0974 27.8291 47.0363 27.6213 46.9141 27.4746C46.7918 27.3035 46.5596 27.218 46.2174 27.218C45.6307 27.218 45.0563 27.4624 44.4941 27.9513C43.9563 28.4158 43.4674 29.0146 43.0274 29.748C42.6118 30.4813 42.2818 31.2391 42.0374 32.0213C41.7929 32.8035 41.6707 33.5002 41.6707 34.1113C41.6707 34.5758 41.7318 34.9913 41.8541 35.358C41.0474 35.358 40.4729 35.1624 40.1307 34.7713C39.8129 34.3558 39.6541 33.8546 39.6541 33.268C39.6541 32.4369 39.8985 31.6058 40.3874 30.7746C40.8763 29.9435 41.4996 29.1858 42.2574 28.5013C43.0396 27.7924 43.8463 27.2302 44.6774 26.8146C45.5329 26.3991 46.3029 26.1913 46.9874 26.1913C47.6474 26.1913 48.0874 26.3746 48.3074 26.7413C48.5518 27.108 48.6741 27.5113 48.6741 27.9513C48.6741 28.2202 48.6374 28.4891 48.5641 28.758C48.5152 29.0269 48.4541 29.2835 48.3807 29.528L45.3007 39.5013C45.6429 39.0124 46.0829 38.5602 46.6207 38.1446C47.1829 37.7291 47.7941 37.2524 48.4541 36.7146C49.5541 35.8346 50.7274 34.808 51.9741 33.6346C53.2452 32.4613 54.4552 31.2269 55.6041 29.9313C56.7529 28.6358 57.7063 27.3891 58.4641 26.1913C58.5863 26.338 58.6718 26.5946 58.7207 26.9613C58.7696 27.328 58.7941 27.6091 58.7941 27.8046C58.7941 28.5624 58.4763 29.3935 57.8407 30.298C57.2296 31.2024 56.4229 32.1435 55.4207 33.1213C54.4185 34.0746 53.3185 35.028 52.1207 35.9813C50.9229 36.9102 49.7374 37.7902 48.5641 38.6213C47.4152 39.4524 46.3763 40.1735 45.4474 40.7846C46.1807 42.0313 46.8896 43.2169 47.5741 44.3413C48.2829 45.4658 49.0407 46.5658 49.8474 47.6413C50.6785 48.7169 51.6441 49.8169 52.7441 50.9413C53.8441 52.0658 55.1763 53.2758 56.7407 54.5713C56.5696 54.8891 56.3007 55.1702 55.9341 55.4146C55.5674 55.6591 55.1763 55.7813 54.7607 55.7813ZM61.697 54.2046C60.2059 54.2046 59.0815 53.7891 58.3237 52.958C57.5904 52.1513 57.2237 51.1491 57.2237 49.9513C57.2237 48.8513 57.4926 47.6902 58.0304 46.468C58.5926 45.2458 59.3259 44.0969 60.2304 43.0213C61.1592 41.9458 62.1737 41.078 63.2737 40.418C64.3737 39.7335 65.4615 39.3913 66.537 39.3913C67.0992 39.3913 67.6126 39.538 68.077 39.8313C68.5659 40.1246 68.8104 40.7235 68.8104 41.628C68.8104 42.5569 68.5292 43.4369 67.967 44.268C67.4292 45.0746 66.7081 45.7958 65.8037 46.4313C64.9237 47.0669 63.9459 47.5924 62.8704 48.008C61.8192 48.3991 60.7681 48.6435 59.717 48.7413C59.6681 48.9858 59.6315 49.218 59.607 49.438C59.5826 49.658 59.5704 49.8658 59.5704 50.0613C59.5704 50.428 59.607 50.7946 59.6804 51.1613C59.7781 51.528 59.937 51.8702 60.157 52.188C60.377 52.4813 60.6704 52.7135 61.037 52.8846C61.4281 53.0558 61.9048 53.1413 62.467 53.1413C63.5181 53.1413 64.557 52.848 65.5837 52.2613C66.6104 51.6502 67.5637 50.8558 68.4437 49.878C69.3237 48.9002 70.0692 47.8246 70.6804 46.6513L71.1204 46.9813C70.4604 48.448 69.617 49.7191 68.5904 50.7946C67.5881 51.8702 66.4881 52.7013 65.2904 53.288C64.117 53.8991 62.9192 54.2046 61.697 54.2046ZM59.9004 48.0446C60.5604 47.8246 61.3059 47.5069 62.137 47.0913C62.9681 46.6513 63.7626 46.138 64.5204 45.5513C65.3026 44.9646 65.9381 44.3169 66.427 43.608C66.9404 42.8991 67.197 42.1535 67.197 41.3713C67.197 41.1024 67.1481 40.8946 67.0504 40.748C66.9526 40.6013 66.7448 40.528 66.427 40.528C65.8404 40.528 65.217 40.7602 64.557 41.2246C63.897 41.6646 63.2615 42.2513 62.6504 42.9846C62.0392 43.718 61.4892 44.5246 61.0004 45.4046C60.5115 46.2846 60.1448 47.1646 59.9004 48.0446ZM72.3306 54.0213C71.5729 54.0213 71.0473 53.6424 70.754 52.8846C70.4606 52.1513 70.314 51.1858 70.314 49.988C70.314 49.9391 70.3262 49.5602 70.3506 48.8513C70.3751 48.118 70.4362 46.8958 70.534 45.1846C70.5829 44.5246 70.6562 44.0724 70.754 43.828C70.8518 43.5835 71.1695 43.4613 71.7073 43.4613C72.1229 43.4613 72.3795 43.5469 72.4773 43.718C72.5995 43.8646 72.6606 44.1702 72.6606 44.6346C72.6606 45.4413 72.5995 46.3946 72.4773 47.4946C72.3795 48.5702 72.3306 49.5846 72.3306 50.538C72.3306 51.2469 72.3918 51.7724 72.514 52.1146C72.6362 52.4324 72.8562 52.5913 73.174 52.5913C73.614 52.5913 74.1029 52.3469 74.6406 51.858C75.1784 51.3446 75.7284 50.6846 76.2906 49.878C76.8529 49.0469 77.3784 48.1669 77.8673 47.238C78.3806 46.3091 78.8329 45.4169 79.224 44.5613C79.2729 42.8991 79.444 41.7991 79.7373 41.2613C80.0551 40.6991 80.4462 40.418 80.9106 40.418C81.3751 40.418 81.7051 40.5891 81.9006 40.9313C82.1206 41.2491 82.2306 41.5424 82.2306 41.8113C82.2306 42.1291 82.1206 42.4591 81.9006 42.8013C81.7051 43.1435 81.4973 43.608 81.2773 44.1946C81.0573 44.7813 80.9473 45.6246 80.9473 46.7246C80.9473 47.1158 80.984 47.5313 81.0573 47.9713C81.1306 48.4113 81.2895 48.778 81.534 49.0713C81.7784 49.3646 82.1573 49.5113 82.6706 49.5113C83.184 49.5113 83.6729 49.3158 84.1373 48.9246C84.6262 48.5091 85.1029 47.8002 85.5673 46.798L86.044 47.1646C85.5062 48.3869 84.9073 49.2058 84.2473 49.6213C83.6118 50.0369 83.0006 50.2446 82.414 50.2446C81.6073 50.2446 80.9351 49.9513 80.3973 49.3646C79.8595 48.778 79.5051 47.8858 79.334 46.688C78.7473 47.8858 78.0506 49.0469 77.244 50.1713C76.4618 51.2713 75.6429 52.188 74.7873 52.9213C73.9318 53.6546 73.1129 54.0213 72.3306 54.0213ZM87.5189 53.5446C86.5656 53.5446 85.8567 53.2391 85.3923 52.628C84.9278 52.0413 84.6956 51.3202 84.6956 50.4646C84.6956 49.9024 84.7934 49.1935 84.9889 48.338C85.2089 47.4824 85.4901 46.5902 85.8323 45.6613C86.1745 44.708 86.5656 43.8158 87.0056 42.9846C87.4701 42.1535 87.9589 41.4813 88.4723 40.968C88.9856 40.4302 89.4867 40.1613 89.9756 40.1613C90.1956 40.1613 90.3789 40.2346 90.5256 40.3813C90.6967 40.5035 90.7823 40.6991 90.7823 40.968C90.7823 41.2613 90.5867 41.738 90.1956 42.398C89.8289 43.058 89.3889 43.8158 88.8756 44.6713C88.3623 45.5269 87.9101 46.4313 87.5189 47.3846C87.1523 48.3135 86.9689 49.2058 86.9689 50.0613C86.9689 50.9413 87.1156 51.528 87.4089 51.8213C87.7023 52.1146 88.1545 52.2613 88.7656 52.2613C89.5967 52.2613 90.4767 51.8458 91.4056 51.0146C92.3589 50.1835 93.3612 48.7291 94.4123 46.6513L94.7423 47.018C94.0334 49.1202 93.0067 50.7335 91.6623 51.858C90.3423 52.9824 88.9612 53.5446 87.5189 53.5446ZM91.9189 36.7513C91.5278 36.7513 91.1734 36.6535 90.8556 36.458C90.5623 36.2624 90.4156 35.9569 90.4156 35.5413C90.4156 35.028 90.7089 34.588 91.2956 34.2213C91.9067 33.8302 92.5056 33.6346 93.0923 33.6346C93.4589 33.6346 93.7523 33.7202 93.9723 33.8913C94.1923 34.0624 94.3023 34.3558 94.3023 34.7713C94.3023 35.2358 94.0456 35.688 93.5323 36.128C93.0434 36.5435 92.5056 36.7513 91.9189 36.7513ZM105.567 53.3246C104.711 53.3246 104.063 53.1046 103.623 52.6646C103.208 52.2246 103 51.6624 103 50.978C103 50.4646 103.086 49.9269 103.257 49.3646C103.452 48.8024 103.636 48.228 103.807 47.6413C103.978 47.0302 104.063 46.4435 104.063 45.8813C104.063 45.1969 103.917 44.7324 103.623 44.488C103.354 44.2191 103.012 44.0846 102.597 44.0846C101.839 44.0846 101.069 44.4024 100.287 45.038C99.5045 45.6491 98.7467 46.4435 98.0134 47.4213C97.28 48.3746 96.5956 49.3646 95.96 50.3913C95.3245 51.418 94.7622 52.3346 94.2734 53.1413C93.8822 53.1413 93.5156 53.068 93.1734 52.9213C92.8067 52.7991 92.5256 52.6035 92.33 52.3346C92.33 52.2124 92.4645 51.8335 92.7334 51.198C92.9778 50.5624 93.2711 49.7802 93.6134 48.8513C93.9556 47.9224 94.2611 46.9691 94.53 45.9913C94.7989 45.0135 94.9334 44.1213 94.9334 43.3146C95.08 43.1435 95.3122 42.9724 95.63 42.8013C95.9478 42.6302 96.2778 42.5446 96.62 42.5446C97.28 42.5446 97.61 42.8624 97.61 43.498C97.61 43.8891 97.5 44.5491 97.28 45.478C97.06 46.3824 96.7789 47.3358 96.4367 48.338C97.0967 47.3358 97.83 46.3458 98.6367 45.368C99.4678 44.3658 100.348 43.5346 101.277 42.8746C102.206 42.2146 103.134 41.8846 104.063 41.8846C105.017 41.8846 105.701 42.2269 106.117 42.9113C106.557 43.5958 106.777 44.3535 106.777 45.1846C106.777 45.9424 106.654 46.6513 106.41 47.3113C106.166 47.9469 105.909 48.5702 105.64 49.1813C105.396 49.768 105.273 50.3669 105.273 50.978C105.273 51.4913 105.371 51.858 105.567 52.078C105.787 52.2735 106.056 52.3713 106.373 52.3713C106.984 52.3713 107.596 52.0902 108.207 51.528C108.818 50.9413 109.404 50.208 109.967 49.328C110.553 48.448 111.067 47.5558 111.507 46.6513L111.91 47.128C111.397 48.3258 110.822 49.3891 110.187 50.318C109.551 51.2469 108.854 51.9802 108.097 52.518C107.339 53.0558 106.496 53.3246 105.567 53.3246Z" fill="url(#paint0_angular_14_15)"/>
</g>
<g filter="url(#filter1_d_14_15)">
<path d="M61.7727 63.6333V63.1353C62.0967 63.1353 62.3327 63.0693 62.4807 62.9373C62.6327 62.8053 62.7087 62.5753 62.7087 62.2473V59.5113H63.2307V62.2473C63.2307 62.5193 63.1867 62.7613 63.0987 62.9733C63.0147 63.1813 62.8667 63.3433 62.6547 63.4593C62.4467 63.5753 62.1527 63.6333 61.7727 63.6333ZM67.0304 63.5913V61.7733H65.2484V63.5913H64.7264V59.5113H65.2484V61.2813H67.0304V59.5113H67.5524V63.5913H67.0304ZM71.9001 61.1013V61.9953C71.9001 62.5033 71.7721 62.9073 71.5161 63.2073C71.2641 63.5033 70.9001 63.6513 70.4241 63.6513C69.9481 63.6513 69.5821 63.5033 69.3261 63.2073C69.0741 62.9073 68.9481 62.5033 68.9481 61.9953V61.1013C68.9481 60.5973 69.0741 60.1973 69.3261 59.9013C69.5821 59.6013 69.9481 59.4513 70.4241 59.4513C70.9001 59.4513 71.2641 59.6013 71.5161 59.9013C71.7721 60.1973 71.9001 60.5973 71.9001 61.1013ZM71.3601 61.1013C71.3601 60.7293 71.2801 60.4433 71.1201 60.2433C70.9641 60.0393 70.7321 59.9373 70.4241 59.9373C70.1201 59.9373 69.8881 60.0393 69.7281 60.2433C69.5681 60.4433 69.4881 60.7293 69.4881 61.1013V61.9953C69.4881 62.3713 69.5681 62.6613 69.7281 62.8653C69.8881 63.0693 70.1201 63.1713 70.4241 63.1713C70.7321 63.1713 70.9641 63.0693 71.1201 62.8653C71.2801 62.6613 71.3601 62.3713 71.3601 61.9953V61.1013ZM73.3069 63.5913V59.5113H73.8529C74.2169 60.0313 74.5509 60.5553 74.8549 61.0833C75.1629 61.6073 75.4509 62.1553 75.7189 62.7273L75.6589 61.1673V59.5113H76.1689V63.5913H75.6229C75.3429 63.0073 75.0529 62.4393 74.7529 61.8873C74.4569 61.3313 74.1329 60.7893 73.7809 60.2613L73.8169 61.9233V63.5913H73.3069ZM79.9095 63.5913L79.6035 62.6433H78.0555L77.7495 63.5913H77.2395L78.5955 59.5113H79.0875L80.4495 63.5913H79.9095ZM78.4335 61.4673L78.2055 62.1693H79.4475L79.2195 61.4673L78.8295 60.2073L78.4335 61.4673ZM80.5618 60.0033V59.5113H83.4598V60.0033H82.2718V63.5913H81.7498V60.0033H80.5618ZM86.2399 63.5913L85.9339 62.6433H84.3859L84.0799 63.5913H83.5699L84.9259 59.5113H85.4179L86.7799 63.5913H86.2399ZM84.7639 61.4673L84.5359 62.1693H85.7779L85.5499 61.4673L85.1599 60.2073L84.7639 61.4673ZM87.8428 63.5913V59.5113H88.3888C88.7528 60.0313 89.0868 60.5553 89.3908 61.0833C89.6988 61.6073 89.9868 62.1553 90.2548 62.7273L90.1948 61.1673V59.5113H90.7048V63.5913H90.1588C89.8788 63.0073 89.5888 62.4393 89.2888 61.8873C88.9928 61.3313 88.6688 60.7893 88.3168 60.2613L88.3528 61.9233V63.5913H87.8428Z" fill="#F25050"/>
</g>
<path d="M75.6107 18.5913C69.6107 9.92463 51.0107 -4.4087 24.6107 7.5913C15.4441 12.258 -1.48927 27.9913 4.11073 53.5913C6.94406 64.9246 19.9107 86.8913 49.1107 84.0913C55.4441 83.0913 69.9107 78.1913 77.1107 66.5913" stroke="url(#paint1_angular_14_15)"/>
<defs>
<filter id="filter0_d_14_15" x="33.7107" y="26.1913" width="82.1993" height="37.59" filterUnits="userSpaceOnUse" color-interpolation-filters="sRGB">
<feFlood flood-opacity="0" result="BackgroundImageFix"/>
<feColorMatrix in="SourceAlpha" type="matrix" values="0 0 0 0 0 0 0 0 0 0 0 0 0 0 0 0 0 0 127 0" result="hardAlpha"/>
<feOffset dy="4"/>
<feGaussianBlur stdDeviation="2"/>
<feComposite in2="hardAlpha" operator="out"/>
<feColorMatrix type="matrix" values="0 0 0 0 0 0 0 0 0 0 0 0 0 0 0 0 0 0 0.25 0"/>
<feBlend mode="normal" in2="BackgroundImageFix" result="effect1_dropShadow_14_15"/>
<feBlend mode="normal" in="SourceGraphic" in2="effect1_dropShadow_14_15" result="shape"/>
</filter>
<filter id="filter1_d_14_15" x="57.7727" y="59.4513" width="36.9321" height="12.2001" filterUnits="userSpaceOnUse" color-interpolation-filters="sRGB">
<feFlood flood-opacity="0" result="BackgroundImageFix"/>
<feColorMatrix in="SourceAlpha" type="matrix" values="0 0 0 0 0 0 0 0 0 0 0 0 0 0 0 0 0 0 127 0" result="hardAlpha"/>
<feOffset dy="4"/>
<feGaussianBlur stdDeviation="2"/>
<feComposite in2="hardAlpha" operator="out"/>
<feColorMatrix type="matrix" values="0 0 0 0 0 0 0 0 0 0 0 0 0 0 0 0 0 0 0.25 0"/>
<feBlend mode="normal" in2="BackgroundImageFix" result="effect1_dropShadow_14_15"/>
<feBlend mode="normal" in="SourceGraphic" in2="effect1_dropShadow_14_15" result="shape"/>
</filter>
<radialGradient id="paint0_angular_14_15" cx="0" cy="0" r="1" gradientUnits="userSpaceOnUse" gradientTransform="translate(75.1107 40.5913) rotate(90) scale(22 38.5)">
<stop offset="0.0977787" stop-color="#F26D3D"/>
<stop offset="0.899602" stop-color="#F25050"/>
<stop offset="1" stop-color="#F25749"/>
</radialGradient>
<radialGradient id="paint1_angular_14_15" cx="0" cy="0" r="1" gradientUnits="userSpaceOnUse" gradientTransform="translate(43.1107 43.5913) rotate(-160.201) scale(39.856 42.1892)">
<stop offset="0.0193354" stop-color="#F26D3D"/>
<stop offset="0.338477" stop-color="#F28322"/>
<stop offset="0.546232" stop-color="#F25050"/>
<stop offset="0.805915" stop-color="#F25749"/>
<stop offset="1" stop-color="#F26D3D"/>
</radialGradient>
</defs>
</svg>
